<svg width="754" height="634" viewBox="0 0 754 634" fill="none" xmlns="http://www.w3.org/2000/svg">
<g clip-path="url(#clip0_2815_26)">
<path d="M168.185 21.7252L168.184 21.7254C153.821 24.6335 136.119 33.2376 118.619 45.5644C101.203 57.8327 84.5026 73.4263 72.057 89.761M168.185 21.7252L423.548 82.7729C416.905 87.3002 408.265 95.4049 399.756 104.536C391.162 113.759 382.34 124.419 375.344 134.338C367.121 145.996 360.82 154.363 355.552 159.889C350.11 165.598 346.904 167.027 345.029 167.176C343.544 167.294 341.035 166.715 336.506 162.118C332.02 157.564 326.756 150.302 319.821 139.834L319.82 139.833C312.731 129.136 302.834 117.329 293.197 107.137C283.615 97.0033 273.899 88.0515 267.075 83.2681C254.77 74.6418 245.307 68.1827 235.415 64.0191C225.246 59.7391 214.956 58 200.971 58C197.851 58 194.935 57.9775 192.182 57.9522C144.938 57.5178 108.799 94.0934 87.4591 132.821C86.7785 134.056 86.0844 135.293 85.3721 136.531L85.372 136.531C59.2054 182.031 48.0706 224.798 51.2644 272H18.3287C15.0005 211.175 37.155 135.572 72.057 89.761M168.185 21.7252C194.819 16.3282 223.473 18.9555 251.433 29.5397L168.185 21.7252ZM72.057 89.761L66.4891 85.5186M72.057 89.761L66.4891 85.5186M66.4891 85.5186C29.2553 134.39 6.33136 215.502 11.8041 279L166.795 14.8646C135.454 21.2105 92.3529 51.5728 66.4891 85.5186ZM326.02 78.0814L320.55 82.4496C297.765 53.9184 279.758 40.2721 251.435 29.5405L326.02 78.0814ZM326.02 78.0814L320.55 82.4497L338.755 105.245L344.203 112.066L349.677 105.267L365.757 85.2958C384.166 62.4344 399.625 47.7987 417.221 38.2498C434.78 28.7211 455.079 23.9282 483.733 21.8462C509.676 19.9611 533.151 23.2481 550.814 32.0594L553.934 25.8054L550.815 32.0595C567.731 40.4969 580.988 53.8584 593.316 69.8999C599.479 77.9189 605.332 86.5011 611.291 95.3907C612.234 96.7977 613.181 98.2133 614.132 99.6353C619.056 107 624.092 114.533 629.37 121.907M326.02 78.0814L629.37 121.907M629.37 121.907C629.916 122.976 630.615 124.323 631.435 125.906C636.072 134.854 644.618 151.346 651.869 167.799C656.243 177.723 660.02 187.358 662.17 195.125C663.251 199.027 663.841 202.179 663.972 204.514C664.068 206.218 663.888 206.963 663.846 207.143C663.479 207.536 662.4 208.418 660.078 209.524C657.654 210.679 654.614 211.737 651.402 212.637C648.219 213.53 645.039 214.221 642.419 214.684C641.111 214.916 639.976 215.085 639.078 215.194C638.953 215.209 638.834 215.223 638.722 215.236C638.548 215.067 638.338 214.852 638.091 214.579C636.739 213.084 635.012 210.678 632.963 207.361C628.9 200.781 624.191 191.646 619.356 181.661C615.37 173.43 611.261 164.53 607.436 156.244C602.208 144.92 597.509 134.74 594.372 128.976L594.168 128.601L593.92 128.254C577.878 105.791 564.002 88.0416 547.779 76.0487C531.193 63.7879 512.541 57.7952 487.506 57.813C470.006 57.8248 458.558 60.7187 448.877 65.6557C444.147 68.0679 440.01 70.882 436.008 73.7756C434.67 74.7431 433.372 75.7006 432.07 76.6602C429.368 78.6535 426.653 80.6553 423.549 82.7721L629.37 121.907ZM639.303 215.736C639.303 215.735 639.302 215.735 639.301 215.734C639.348 215.761 639.35 215.767 639.303 215.736ZM663.958 207.01C663.957 207.011 663.956 207.013 663.955 207.014C663.956 207.012 663.958 207.01 663.959 207.008L663.958 207.01Z" fill="#1A0F91" stroke="#0007B0" stroke-width="14"/>
<path d="M658.5 365C658.5 513.565 517.607 634 343.807 634C170.006 634 31 502.065 31 353.5" stroke="#DA251C" stroke-width="14"/>
<path d="M629.5 359C629.5 486.578 501.114 582 346.07 582C191.025 582 65.3359 478.578 65.3359 351" stroke="#DA251C" stroke-width="14"/>
<path d="M733.113 278.08C735.285 268.108 735.984 258.55 736.289 231.076L736.295 230.537C736.341 226.369 736.373 223.477 736.267 221.337C736.239 220.784 736.204 220.335 736.166 219.972L735.781 224.555L734.966 234.288L734.966 234.288C734.515 239.657 733.848 246.222 733.472 248.896C733.124 251.367 732.277 257.847 731.59 263.292C727.779 293.504 717.469 317.634 700.255 335.139L704.012 335.408L705.459 335.473L708.123 332.238L708.123 332.238C719.942 317.886 728.402 299.707 733.113 278.08ZM733.113 278.08L738.487 279.25M733.113 278.08L738.487 279.25M738.487 279.25C740.792 268.665 741.484 258.587 741.788 231.137L741.796 230.454C741.905 220.722 741.95 216.708 739.982 214.964C738.601 213.74 736.228 213.634 732.19 213.453L731.786 213.435L724.73 213.117L712.369 335.734C724.829 320.603 733.621 301.589 738.487 279.25ZM536.898 274.08C535.058 262.091 534.424 247.622 535.267 241.493L535.267 241.492C535.693 238.398 536.557 229.631 537.196 222.019C537.23 221.62 537.262 221.232 537.294 220.856C537.616 217.012 537.842 214.306 538.126 212.286C538.199 211.77 538.27 211.347 538.336 211.001L538.136 215.448L537.728 224.531C537.582 227.776 537.548 230.459 537.662 232.649C537.771 234.769 538.032 236.8 538.672 238.549L538.672 238.549C538.739 238.731 538.921 239.456 539.028 240.958C539.128 242.368 539.142 244.173 539.046 246.326C538.652 255.064 539.288 264.259 540.979 275.111C545.572 304.593 558.861 328.704 579.582 343.799L582.82 339.353L536.898 274.08ZM536.898 274.08C540.738 299.104 549.736 319.193 563.653 334.631C578.073 350.627 596.217 360.037 619.704 363.433L619.705 363.433C621.286 363.662 622.816 363.971 624.036 364.317C624.612 364.479 625.324 364.707 625.987 365.022C626.177 365.112 626.476 365.261 626.818 365.481M536.898 274.08L626.818 365.481M626.818 365.481C627.742 365.62 629.128 365.753 630.74 365.825C632.288 365.895 633.632 365.889 634.558 365.838C634.625 365.8 634.686 365.767 634.74 365.738C635.445 365.363 636.157 365.136 636.661 364.998C637.742 364.7 639.014 364.5 640.267 364.399M626.818 365.481L640.71 369.881M640.267 364.399L640.71 369.881M640.267 364.399C640.266 364.399 640.266 364.399 640.266 364.399L640.71 369.881M640.267 364.399C650.971 363.533 658.081 362.393 664.152 360.674L665.65 365.966C659.093 367.823 651.586 369.001 640.71 369.881M720.579 218.436L724.459 218.611C723.691 218.754 722.877 219.007 722.095 219.442C719.86 220.683 718.895 222.791 718.461 223.799C717.753 224.081 717.095 224.464 716.508 224.934C716.511 222.892 716.571 220.612 716.679 218.305C716.792 215.92 716.954 213.563 717.151 211.466C717.651 211.951 718.227 212.375 718.871 212.721L719.46 214.693L720.579 218.436ZM719.697 223.423C719.699 223.423 719.7 223.422 719.702 223.422L719.701 223.422C719.7 223.423 719.698 223.423 719.697 223.423ZM718.786 212.435L718.787 212.44C718.786 212.438 718.786 212.437 718.786 212.435L718.786 212.435ZM549.329 210.562C549.272 210.552 549.215 210.542 549.158 210.533C549.586 210.499 550.013 210.447 550.428 210.367C551.688 210.125 553.174 209.57 554.43 208.268C555.401 207.261 555.903 206.098 556.088 205.666C556.09 205.663 556.092 205.66 556.094 205.657C556.11 205.632 556.133 205.6 556.161 205.563C556.19 205.525 556.221 205.487 556.254 205.449C556.287 205.412 556.318 205.379 556.345 205.351C556.349 205.347 556.354 205.343 556.358 205.339C556.868 205.034 557.335 204.684 557.757 204.306C557.701 206.133 557.609 208.404 557.482 211.239C557.369 213.744 557.271 215.83 557.171 217.577C556.745 217.174 556.262 216.806 555.724 216.494C555.412 215.455 554.659 213.166 552.401 211.712C551.279 210.99 550.149 210.703 549.329 210.562ZM559.54 198.603L559.352 198.397L559.54 198.603Z" fill="black" stroke="black" stroke-width="11"/>
<path d="M176.906 264.578C171.438 264.578 167.203 266.641 164.203 270.766C161.203 274.859 159.703 280.578 159.703 287.922C159.703 303.203 165.438 310.844 176.906 310.844C181.719 310.844 187.547 309.641 194.391 307.234V319.422C188.766 321.766 182.484 322.938 175.547 322.938C165.578 322.938 157.953 319.922 152.672 313.891C147.391 307.828 144.75 299.141 144.75 287.828C144.75 280.703 146.047 274.469 148.641 269.125C151.234 263.75 154.953 259.641 159.797 256.797C164.672 253.922 170.375 252.484 176.906 252.484C183.562 252.484 190.25 254.094 196.969 257.312L192.281 269.125C189.719 267.906 187.141 266.844 184.547 265.938C181.953 265.031 179.406 264.578 176.906 264.578ZM209.016 322V253.469H223.547V310H251.344V322H209.016ZM263.297 322V253.469H277.828V322H263.297ZM262.5 247.984V246.719C267.875 240.469 271.547 235.766 273.516 232.609H289.547V233.594C287.922 235.219 285.141 237.641 281.203 240.859C277.297 244.047 274.234 246.422 272.016 247.984H262.5ZM355.875 322H337.406L307.594 270.156H307.172C307.766 279.312 308.062 285.844 308.062 289.75V322H295.078V253.469H313.406L343.172 304.797H343.5C343.031 295.891 342.797 289.594 342.797 285.906V253.469H355.875V322ZM373.172 322V253.469H387.703V322H373.172ZM434.062 264.578C428.594 264.578 424.359 266.641 421.359 270.766C418.359 274.859 416.859 280.578 416.859 287.922C416.859 303.203 422.594 310.844 434.062 310.844C438.875 310.844 444.703 309.641 451.547 307.234V319.422C445.922 321.766 439.641 322.938 432.703 322.938C422.734 322.938 415.109 319.922 409.828 313.891C404.547 307.828 401.906 299.141 401.906 287.828C401.906 280.703 403.203 274.469 405.797 269.125C408.391 263.75 412.109 259.641 416.953 256.797C421.828 253.922 427.531 252.484 434.062 252.484C440.719 252.484 447.406 254.094 454.125 257.312L449.438 269.125C446.875 267.906 444.297 266.844 441.703 265.938C439.109 265.031 436.562 264.578 434.062 264.578ZM508.125 322L503.156 305.688H478.172L473.203 322H457.547L481.734 253.188H499.5L523.781 322H508.125ZM499.688 293.5C495.094 278.719 492.5 270.359 491.906 268.422C491.344 266.484 490.938 264.953 490.688 263.828C489.656 267.828 486.703 277.719 481.828 293.5H499.688Z" fill="#3840F7"/>
<path d="M217.922 410L201.422 356.234H201C201.594 367.172 201.891 374.469 201.891 378.125V410H188.906V341.469H208.688L224.906 393.875H225.188L242.391 341.469H262.172V410H248.625V377.562C248.625 376.031 248.641 374.266 248.672 372.266C248.734 370.266 248.953 364.953 249.328 356.328H248.906L231.234 410H217.922ZM318.938 410H279.469V341.469H318.938V353.375H294V368.422H317.203V380.328H294V398H318.938V410ZM390.141 375.078C390.141 386.359 386.922 395 380.484 401C374.078 407 364.812 410 352.688 410H333.281V341.469H354.797C365.984 341.469 374.672 344.422 380.859 350.328C387.047 356.234 390.141 364.484 390.141 375.078ZM375.047 375.453C375.047 360.734 368.547 353.375 355.547 353.375H347.812V398H354.047C368.047 398 375.047 390.484 375.047 375.453ZM404.344 410V341.469H418.875V410H404.344ZM465.234 352.578C459.766 352.578 455.531 354.641 452.531 358.766C449.531 362.859 448.031 368.578 448.031 375.922C448.031 391.203 453.766 398.844 465.234 398.844C470.047 398.844 475.875 397.641 482.719 395.234V407.422C477.094 409.766 470.812 410.938 463.875 410.938C453.906 410.938 446.281 407.922 441 401.891C435.719 395.828 433.078 387.141 433.078 375.828C433.078 368.703 434.375 362.469 436.969 357.125C439.562 351.75 443.281 347.641 448.125 344.797C453 341.922 458.703 340.484 465.234 340.484C471.891 340.484 478.578 342.094 485.297 345.312L480.609 357.125C478.047 355.906 475.469 354.844 472.875 353.938C470.281 353.031 467.734 352.578 465.234 352.578Z" fill="#2555FF"/>
</g>
<defs>
<clipPath id="clip0_2815_26">
<rect width="754" height="634" fill="white"/>
</clipPath>
</defs>
</svg>
